<svg width="118" height="72" viewBox="0 0 118 72" fill="none" xmlns="http://www.w3.org/2000/svg">
<path d="M56.648 22.4641C56.648 27.2001 55.528 31.1681 53.288 34.3681C51.112 37.5041 48.104 39.8721 44.264 41.4721C40.424 43.0721 35.944 43.8721 30.824 43.8721H15.752C15.112 43.8721 14.792 44.1921 14.792 44.8321V70.0801C14.792 71.36 14.088 72 12.68 72H2.312C1.672 72 1.224 71.872 0.967999 71.616C0.711999 71.296 0.583999 70.8481 0.583999 70.2721V2.40006C0.583999 1.31205 1.064 0.768054 2.024 0.768054H29.192C34.312 0.768054 38.952 1.53605 43.112 3.07205C47.272 4.60806 50.568 6.97606 53 10.1761C55.432 13.3761 56.648 17.4721 56.648 22.4641ZM42.056 22.1761C42.056 19.5521 41.48 17.4401 40.328 15.8401C39.24 14.1761 37.64 12.9601 35.528 12.1921C33.48 11.4241 31.112 11.0401 28.424 11.0401H16.424C15.336 11.0401 14.792 11.5521 14.792 12.5761V31.9681C14.792 33.0561 15.208 33.6001 16.04 33.6001H29C32.968 33.6001 36.136 32.6401 38.504 30.7201C40.872 28.7361 42.056 25.8881 42.056 22.1761ZM116.077 69.6961C116.333 70.2721 116.333 70.8161 116.077 71.3281C115.821 71.776 115.405 72 114.829 72H103.117C102.221 72 101.581 71.488 101.197 70.4641L90.1572 42.4321C89.8372 41.6001 88.9732 41.1841 87.5652 41.1841H76.0452C75.5972 41.1841 75.2772 41.3121 75.0852 41.5681C74.9572 41.7601 74.8932 41.9841 74.8932 42.2401V69.9841C74.8932 71.328 74.1572 72 72.6852 72H62.5092C61.8052 72 61.3252 71.872 61.0692 71.616C60.8132 71.296 60.6852 70.8481 60.6852 70.2721V2.40006C60.6852 1.31205 61.1652 0.768054 62.1252 0.768054H91.0212C99.2132 0.768054 105.581 2.43205 110.125 5.76005C114.733 9.02405 117.037 13.7601 117.037 19.9681C117.037 23.3601 116.397 26.3361 115.117 28.8961C113.837 31.3921 112.173 33.4721 110.125 35.1361C108.077 36.7361 105.901 37.9521 103.597 38.7841C103.021 38.9121 102.893 39.3281 103.213 40.0321L116.077 69.6961ZM89.0052 31.3921C93.3572 31.3921 96.6532 30.5281 98.8932 28.8001C101.197 27.0721 102.349 24.4801 102.349 21.0241C102.349 17.5041 101.261 14.8801 99.0852 13.1521C96.9092 11.3601 93.9332 10.4641 90.1572 10.4641H76.6212C75.4692 10.4641 74.8932 10.9121 74.8932 11.8081V29.9521C74.8932 30.9121 75.3092 31.3921 76.1412 31.3921H89.0052Z" fill="url(#paint0_linear_29_3)"/>
<defs>
<linearGradient id="paint0_linear_29_3" x1="57.5" y1="-20.9999" x2="57.5" y2="95" gradientUnits="userSpaceOnUse">
<stop stop-color="#E05CE2"/>
<stop offset="0.462996" stop-color="#AC51D7"/>
<stop offset="1" stop-color="#2250C7"/>
<stop offset="1" stop-color="#2250C7"/>
</linearGradient>
</defs>
</svg>
